{
  "source": "C:\\Users\\Peter\\Desktop\\stuff\\MIUN\\quantitative_research\\video_compression\\videos\\BVI-HD\\BVI-HD_CDVL_videos\\ORIG\\Bookcase_1920x1080_60fps.mp4",
  "output": "C:\\Users\\Peter\\Desktop\\stuff\\MIUN\\quantitative_research\\video_compression\\compressed_videos\\BVI-HD\\av1\\2\\Bookcase_1920x1080_60fps_av1.mkv",
  "codec": "av1",
  "ok": "Input #0, mov,mp4,m4a,3gp,3g2,mj2, from 'C:\\Users\\Peter\\Desktop\\stuff\\MIUN\\quantitative_research\\video_compression\\videos\\BVI-HD\\BVI-HD_CDVL_videos\\ORIG\\Bookcase_1920x1080_60fps.mp4':\n  Metadata:\n    major_brand     : isom\n    minor_version   : 512\n    compatible_brands: isomiso2avc1mp41\n    encoder         : Lavf54.28.101\n  Duration: 00:00:05.00, start: 0.000000, bitrate: 336321 kb/s\n  Stream #0:0[0x1](und): Video: h264 (High 4:4:4 Predictive) (avc1 / 0x31637661), yuv420p(progressive), 1920x1080, 336316 kb/s, 60 fps, 60 tbr, 60 tbn (default)\n    Metadata:\n      handler_name    : VideoHandler\n      vendor_id       : [0][0][0][0]\n[out#0/matroska @ 0000017109afad80] Codec AVOption b:a (set bitrate (in bits/s)) has not been used for any stream. The most likely reason is either wrong type (e.g. a video option with no video streams) or that it is a private option of some decoder which was not actually used for any stream.\nStream mapping:\n  Stream #0:0 -> #0:0 (h264 (native) -> av1 (libsvtav1))\nPress [q] to stop, [?] for help\nSvt[info]: -------------------------------------------\nSvt[info]: SVT [version]:\tSVT-AV1 Encoder Lib v3.1.0-19-g6ecfe8ec\nSvt[info]: SVT [build]  :\tGCC 15.2.0\t 64 bit\nSvt[info]: LIB Build date: Aug 17 2025 11:37:13\nSvt[info]: -------------------------------------------\nSvt[info]: Level of Parallelism: 5\nSvt[info]: Number of PPCS 93\nSvt[info]: [asm level on system : up to avx2]\nSvt[info]: [asm level selected : up to avx2]\nSvt[info]: -------------------------------------------\nSvt[info]: SVT [config]: main profile\ttier (auto)\tlevel (auto)\nSvt[info]: SVT [config]: width / height / fps numerator / fps denominator \t\t: 1920 / 1080 / 60 / 1\nSvt[info]: SVT [config]: bit-depth / color format \t\t\t\t\t: 8 / YUV420\nSvt[info]: SVT [config]: preset / tune / pred struct \t\t\t\t\t: 4 / PSNR / random access\nSvt[info]: SVT [config]: gop size / mini-gop size / key-frame type \t\t\t: 321 / 16 / key frame\nSvt[info]: SVT [config]: BRC mode / target bitrate (kbps)\t\t\t\t: VBR / 2000 \nSvt[info]: SVT [config]: AQ mode / Variance Boost \t\t\t\t\t: 2 / 0\nSvt[info]: SVT [config]: sharpness / luminance-based QP bias \t\t\t\t: 0 / 0\nSvt[info]: SVT [config]: QP scale compress strength \t\t\t\t\t: 0\nSvt[info]: -------------------------------------------\nOutput #0, matroska, to 'C:\\Users\\Peter\\Desktop\\stuff\\MIUN\\quantitative_research\\video_compression\\compressed_videos\\BVI-HD\\av1\\2\\Bookcase_1920x1080_60fps_av1.mkv':\n  Metadata:\n    major_brand     : isom\n    minor_version   : 512\n    compatible_brands: isomiso2avc1mp41\n    encoder         : Lavf62.3.100\n  Stream #0:0(und): Video: av1 (AV01 / 0x31305641), yuv420p(tv, progressive), 1920x1080, q=2-31, 2000 kb/s, 60 fps, 1k tbn (default)\n    Metadata:\n      encoder         : Lavc62.11.100 libsvtav1\n      handler_name    : VideoHandler\n      vendor_id       : [0][0][0][0]\n    Side data:\n      cpb: bitrate max/min/avg: 0/0/2000000 buffer size: 2000000 vbv_delay: N/A\nframe=    0 fps=0.0 q=0.0 size=       0KiB time=N/A bitrate=N/A speed=N/A elapsed=0:00:01.05    \nframe=    0 fps=0.0 q=0.0 size=       0KiB time=N/A bitrate=N/A speed=N/A elapsed=0:00:01.64    \nframe=    0 fps=0.0 q=0.0 size=       0KiB time=N/A bitrate=N/A speed=N/A elapsed=0:00:02.23    \nframe=    0 fps=0.0 q=0.0 size=       0KiB time=N/A bitrate=N/A speed=N/A elapsed=0:00:02.81    \nframe=    0 fps=0.0 q=0.0 size=       0KiB time=N/A bitrate=N/A speed=N/A elapsed=0:00:03.36    \nframe=    0 fps=0.0 q=0.0 size=       0KiB time=N/A bitrate=N/A speed=N/A elapsed=0:00:03.97    \nframe=    0 fps=0.0 q=0.0 size=       0KiB time=N/A bitrate=N/A speed=N/A elapsed=0:00:04.48    \nframe=    0 fps=0.0 q=0.0 size=       0KiB time=N/A bitrate=N/A speed=N/A elapsed=0:00:04.99    \nframe=    0 fps=0.0 q=0.0 size=       0KiB time=N/A bitrate=N/A speed=N/A elapsed=0:00:05.52    \nframe=    1 fps=0.2 q=17.0 size=       1KiB time=00:00:00.00 bitrate=N/A speed=   0x elapsed=0:00:06.09    \nframe=    1 fps=0.2 q=17.0 size=       1KiB time=00:00:00.00 bitrate=N/A speed=   0x elapsed=0:00:06.62    \nframe=    2 fps=0.3 q=45.0 size=       1KiB time=00:00:00.00 bitrate=N/A speed=   0x elapsed=0:00:07.17    \nframe=    7 fps=0.9 q=42.0 size=       1KiB time=00:00:00.10 bitrate=  57.0kbits/s speed=0.0129x elapsed=0:00:07.72    \nframe=   13 fps=1.6 q=40.0 size=       1KiB time=00:00:00.20 bitrate=  28.5kbits/s speed=0.0242x elapsed=0:00:08.25    \nframe=   15 fps=1.7 q=39.0 size=       1KiB time=00:00:00.21 bitrate=  26.3kbits/s speed=0.0246x elapsed=0:00:08.81    \nframe=   20 fps=2.1 q=36.0 size=       1KiB time=00:00:00.30 bitrate=  19.0kbits/s speed=0.032x elapsed=0:00:09.38    \nframe=   24 fps=2.4 q=35.0 size=       1KiB time=00:00:00.38 bitrate=  14.9kbits/s speed=0.0385x elapsed=0:00:09.96    \nframe=   27 fps=2.6 q=33.0 size=       1KiB time=00:00:00.43 bitrate=  13.1kbits/s speed=0.041x elapsed=0:00:10.56    \nframe=   32 fps=2.9 q=31.0 size=       1KiB time=00:00:00.51 bitrate=  11.0kbits/s speed=0.0463x elapsed=0:00:11.15    \nframe=   36 fps=3.1 q=29.0 size=       1KiB time=00:00:00.58 bitrate=   9.8kbits/s speed=0.0498x elapsed=0:00:11.72    \nframe=   38 fps=3.1 q=28.0 size=       1KiB time=00:00:00.61 bitrate=   9.2kbits/s speed=0.0502x elapsed=0:00:12.27    \nframe=   40 fps=3.1 q=28.0 size=       1KiB time=00:00:00.65 bitrate=   8.8kbits/s speed=0.0506x elapsed=0:00:12.83    \nframe=   43 fps=3.2 q=27.0 size=       1KiB time=00:00:00.68 bitrate=   8.3kbits/s speed=0.0509x elapsed=0:00:13.42    \nframe=   44 fps=3.1 q=26.0 size=       1KiB time=00:00:00.71 bitrate=   7.9kbits/s speed=0.0513x elapsed=0:00:13.97    \nframe=   48 fps=3.3 q=26.0 size=       1KiB time=00:00:00.78 bitrate=   7.3kbits/s speed=0.0539x elapsed=0:00:14.53    \nframe=   50 fps=3.3 q=26.0 size=       1KiB time=00:00:00.81 bitrate=   7.0kbits/s speed=0.0542x elapsed=0:00:15.05    \nframe=   53 fps=3.4 q=27.0 size=       1KiB time=00:00:00.86 bitrate=   6.6kbits/s speed=0.0556x elapsed=0:00:15.57    \nframe=   55 fps=3.4 q=31.0 size=       1KiB time=00:00:00.90 bitrate=   6.3kbits/s speed=0.0559x elapsed=0:00:16.11    \nframe=   59 fps=3.5 q=30.0 size=       1KiB time=00:00:00.96 bitrate=   5.9kbits/s speed=0.0578x elapsed=0:00:16.72    \nframe=   63 fps=3.6 q=27.0 size=       1KiB time=00:00:01.03 bitrate=   5.5kbits/s speed=0.0598x elapsed=0:00:17.28    \nframe=   67 fps=3.8 q=28.0 size=       1KiB time=00:00:01.10 bitrate=   5.2kbits/s speed=0.0618x elapsed=0:00:17.81    \nframe=   69 fps=3.8 q=28.0 size=       1KiB time=00:00:01.13 bitrate=   5.0kbits/s speed=0.0618x elapsed=0:00:18.34    \nframe=   71 fps=3.8 q=26.0 size=       1KiB time=00:00:01.16 bitrate=   4.9kbits/s speed=0.0618x elapsed=0:00:18.86    \nframe=   75 fps=3.9 q=28.0 size=       1KiB time=00:00:01.23 bitrate=   4.6kbits/s speed=0.0635x elapsed=0:00:19.42    \nframe=   81 fps=4.1 q=20.0 size=       1KiB time=00:00:01.31 bitrate=   4.3kbits/s speed=0.066x elapsed=0:00:19.96    \nframe=   84 fps=4.1 q=30.0 size=       1KiB time=00:00:01.38 bitrate=   4.1kbits/s speed=0.0674x elapsed=0:00:20.52    \nframe=   88 fps=4.2 q=30.0 size=       1KiB time=00:00:01.45 bitrate=   3.9kbits/s speed=0.0687x elapsed=0:00:21.09    \nframe=   94 fps=4.3 q=32.0 size=       1KiB time=00:00:01.53 bitrate=   3.7kbits/s speed=0.0707x elapsed=0:00:21.68    \nframe=   98 fps=4.4 q=33.0 size=       1KiB time=00:00:01.61 bitrate=   3.5kbits/s speed=0.0727x elapsed=0:00:22.24    \nframe=  103 fps=4.5 q=32.0 size=       1KiB time=00:00:01.68 bitrate=   3.4kbits/s speed=0.0738x elapsed=0:00:22.80    \nframe=  105 fps=4.5 q=27.0 size=       1KiB time=00:00:01.73 bitrate=   3.3kbits/s speed=0.0742x elapsed=0:00:23.35    \nframe=  110 fps=4.6 q=31.0 size=       1KiB time=00:00:01.81 bitrate=   3.1kbits/s speed=0.0761x elapsed=0:00:23.87    \nframe=  115 fps=4.7 q=32.0 size=       1KiB time=00:00:01.90 bitrate=   3.0kbits/s speed=0.0779x elapsed=0:00:24.39    \nframe=  118 fps=4.7 q=33.0 size=       1KiB time=00:00:01.95 bitrate=   2.9kbits/s speed=0.0781x elapsed=0:00:24.96    \nframe=  122 fps=4.8 q=33.0 size=       1KiB time=00:00:02.01 bitrate=   2.8kbits/s speed=0.0791x elapsed=0:00:25.50    \nframe=  126 fps=4.8 q=31.0 size=       1KiB time=00:00:02.08 bitrate=   2.7kbits/s speed=0.08x elapsed=0:00:26.03    \nframe=  132 fps=5.0 q=34.0 size=       1KiB time=00:00:02.18 bitrate=   2.6kbits/s speed=0.0822x elapsed=0:00:26.56    \nframe=  137 fps=5.0 q=28.0 size=       1KiB time=00:00:02.26 bitrate=   2.5kbits/s speed=0.0835x elapsed=0:00:27.14    \nframe=  141 fps=5.1 q=31.0 size=       1KiB time=00:00:02.33 bitrate=   2.4kbits/s speed=0.084x elapsed=0:00:27.78    \nframe=  144 fps=5.1 q=32.0 size=       1KiB time=00:00:02.38 bitrate=   2.4kbits/s speed=0.0842x elapsed=0:00:28.29    \nframe=  149 fps=5.2 q=33.0 size=       1KiB time=00:00:02.46 bitrate=   2.3kbits/s speed=0.0856x elapsed=0:00:28.83    \nframe=  152 fps=5.2 q=36.0 size=       1KiB time=00:00:02.51 bitrate=   2.3kbits/s speed=0.0857x elapsed=0:00:29.37    \nframe=  157 fps=5.2 q=31.0 size=       1KiB time=00:00:02.60 bitrate=   2.2kbits/s speed=0.0869x elapsed=0:00:29.93    \nframe=  161 fps=5.3 q=24.0 size=       1KiB time=00:00:02.66 bitrate=   2.1kbits/s speed=0.0876x elapsed=0:00:30.45    \nframe=  165 fps=5.3 q=34.0 size=       1KiB time=00:00:02.73 bitrate=   2.1kbits/s speed=0.0882x elapsed=0:00:30.98    \nframe=  168 fps=5.3 q=37.0 size=       1KiB time=00:00:02.78 bitrate=   2.0kbits/s speed=0.0883x elapsed=0:00:31.51    \nframe=  174 fps=5.4 q=39.0 size=       1KiB time=00:00:02.88 bitrate=   2.0kbits/s speed=0.0897x elapsed=0:00:32.13    \nframe=  180 fps=5.5 q=40.0 size=       1KiB time=00:00:02.98 bitrate=   1.9kbits/s speed=0.0913x elapsed=0:00:32.68    \nframe=  184 fps=5.5 q=40.0 size=       1KiB time=00:00:03.03 bitrate=   1.9kbits/s speed=0.0913x elapsed=0:00:33.23    \nframe=  190 fps=5.6 q=41.0 size=       1KiB time=00:00:03.15 bitrate=   1.8kbits/s speed=0.0931x elapsed=0:00:33.83    \nframe=  196 fps=5.7 q=42.0 size=       1KiB time=00:00:03.25 bitrate=   1.8kbits/s speed=0.0945x elapsed=0:00:34.40    \nframe=  201 fps=5.8 q=37.0 size=       1KiB time=00:00:03.33 bitrate=   1.7kbits/s speed=0.0955x elapsed=0:00:34.91    \nframe=  209 fps=5.9 q=23.0 size=       1KiB time=00:00:03.46 bitrate=   1.6kbits/s speed=0.0976x elapsed=0:00:35.50    \nframe=  217 fps=6.0 q=35.0 size=       1KiB time=00:00:03.60 bitrate=   1.6kbits/s speed=0.0998x elapsed=0:00:36.06    \nframe=  221 fps=6.0 q=39.0 size=       1KiB time=00:00:03.66 bitrate=   1.6kbits/s speed= 0.1x elapsed=0:00:36.60    \nframe=  229 fps=6.2 q=39.0 size=       1KiB time=00:00:03.80 bitrate=   1.5kbits/s speed=0.102x elapsed=0:00:37.12    \nframe=  235 fps=6.2 q=41.0 size=       1KiB time=00:00:03.86 bitrate=   1.5kbits/s speed=0.103x elapsed=0:00:37.66    \nframe=  241 fps=6.3 q=28.0 size=       1KiB time=00:00:04.00 bitrate=   1.4kbits/s speed=0.105x elapsed=0:00:38.20    \nframe=  249 fps=6.4 q=35.0 size=       1KiB time=00:00:04.13 bitrate=   1.4kbits/s speed=0.107x elapsed=0:00:38.76    \nframe=  255 fps=6.5 q=40.0 size=       1KiB time=00:00:04.20 bitrate=   1.4kbits/s speed=0.107x elapsed=0:00:39.30    \nframe=  263 fps=6.6 q=42.0 size=       1KiB time=00:00:04.36 bitrate=   1.3kbits/s speed=0.11x elapsed=0:00:39.86    \nframe=  269 fps=6.7 q=35.0 size=       1KiB time=00:00:04.46 bitrate=   1.3kbits/s speed=0.111x elapsed=0:00:40.41    \nframe=  281 fps=6.9 q=36.0 size=       1KiB time=00:00:04.66 bitrate=   1.2kbits/s speed=0.114x elapsed=0:00:40.96    \nframe=  295 fps=7.1 q=45.0 size=       1KiB time=00:00:04.86 bitrate=   1.2kbits/s speed=0.117x elapsed=0:00:41.49    \n[out#0/matroska @ 0000017109afad80] video:1118KiB audio:0KiB subtitle:0KiB other streams:0KiB global headers:0KiB muxing overhead: 0.185860%\nframe=  300 fps=7.2 q=47.0 Lsize=    1120KiB time=00:00:04.98 bitrate=1840.6kbits/s speed=0.12x elapsed=0:00:41.55    \n",
  "seconds": 42.29771423339844,
  "probe_out": {}
}